<?xml version="1.0" standalone="no"?><!DOCTYPE svg PUBLIC "-//W3C//DTD SVG 1.1//EN" "http://www.w3.org/Graphics/SVG/1.1/DTD/svg11.dtd"><svg t="1728979559277" class="icon" viewBox="0 0 1025 1024" version="1.1" xmlns="http://www.w3.org/2000/svg" p-id="5413" xmlns:xlink="http://www.w3.org/1999/xlink" width="200.1953125" height="200"><path d="M930.7136 582.2976a35.84 35.84 0 0 1 35.84 35.84v300.7488c1.3824 41.5744-3.6352 68.864-22.2208 86.016-17.3056 15.9232-42.3936 20.48-74.9056 18.7392H160.9728C128 1022.0032 102.4 1008.64 90.5216 981.6576c-7.8848-17.7664-11.5712-38.7584-11.5712-62.8736v-300.6976a35.84 35.84 0 0 1 71.68 0v300.6976c0 11.8784 1.3312 21.504 3.584 28.7744l1.8432 5.0176-0.1536-0.512c0.0512-0.6656 1.536-0.4096 6.7584-0.1024h708.608c12.544 0.7168 20.5312 0 23.3472-0.0512l0.2048-0.0512c-0.6656-2.7136 0.6144-13.824 0-31.8464v-301.9264a35.84 35.84 0 0 1 35.8912-35.84z m-35.8912 369.6128l0.3072 0.512 0.512-0.2048c0.1536-0.1024 0.1536-0.1536 0-0.2048l-0.8192-0.1024zM534.2208 0c13.5168 0 25.6 5.3248 36.9664 15.2064l441.6 416.7168a35.84 35.84 0 1 1-49.2544 52.0704l-430.9504-406.7328-473.2928 407.808a35.84 35.84 0 0 1-46.848-54.272L496.0768 14.1824l4.4032-3.2768c10.9568-6.8608 21.9136-10.8544 33.792-10.8544z" fill="currentColor" p-id="5414"></path></svg>
